<svg width="27" height="27" viewBox="0 0 27 27" fill="none" xmlns="http://www.w3.org/2000/svg">
<path d="M13.5 27C20.9558 27 27 20.9558 27 13.5C27 6.04416 20.9558 0 13.5 0C6.04416 0 0 6.04416 0 13.5C0 20.9558 6.04416 27 13.5 27Z" fill="white"/>
<path d="M13.5 26.5C20.6797 26.5 26.5 20.6797 26.5 13.5C26.5 6.3203 20.6797 0.5 13.5 0.5C6.3203 0.5 0.5 6.3203 0.5 13.5C0.5 20.6797 6.3203 26.5 13.5 26.5Z" stroke="#707070"/>
<path d="M7.18103 6.87601L20.933 20.628" stroke="#707070"/>
<path d="M20.933 6.87601L7.18098 20.628" stroke="#707070"/>
</svg>
