<svg width="30" height="17" viewBox="0 0 30 17" fill="none" xmlns="http://www.w3.org/2000/svg">
<mask id="mask0_66_175" style="mask-type:luminance" maskUnits="userSpaceOnUse" x="0" y="0" width="30" height="17">
<path d="M29.019 0H0V17H29.019V0Z" fill="white"/>
</mask>
<g mask="url(#mask0_66_175)">
<path d="M14.509 17C11.5681 17.0484 8.66912 16.2981 6.12094 14.8291C3.57276 13.36 1.4708 11.2273 0.038991 8.658C0.0129947 8.60958 -0.000610352 8.55547 -0.000610352 8.5005C-0.000610352 8.44554 0.0129947 8.39143 0.038991 8.34301C1.47059 5.77347 3.57247 3.64045 6.12068 2.17122C8.66889 0.701992 11.568 -0.0483973 14.509 4.60702e-06C17.4499 -0.0483869 20.3489 0.701898 22.897 2.17093C25.4452 3.63997 27.5472 5.77272 28.979 8.342C29.005 8.39043 29.0186 8.44454 29.0186 8.49951C29.0186 8.55447 29.005 8.60858 28.979 8.657C27.5473 11.2265 25.4454 13.3594 22.8972 14.8286C20.349 16.2979 17.45 17.0483 14.509 17ZM0.712991 8.5C2.10312 10.9198 4.11655 12.9228 6.54363 14.3002C8.97071 15.6777 11.7227 16.3793 14.513 16.332C17.3019 16.3777 20.0522 15.6754 22.4777 14.298C24.9033 12.9207 26.9154 10.9186 28.305 8.5C26.9152 6.08077 24.9024 4.07823 22.4761 2.70081C20.0498 1.32339 17.2986 0.621437 14.509 0.668005C11.7193 0.621331 8.96815 1.32324 6.54182 2.70067C4.11549 4.0781 2.10271 6.08069 0.712991 8.5Z" fill="#707070"/>
<path d="M14.509 16.291C12.9681 16.291 11.4618 15.8341 10.1805 14.978C8.89932 14.1219 7.90073 12.9051 7.31105 11.4815C6.72136 10.0579 6.56707 8.49138 6.86769 6.98007C7.16831 5.46876 7.91033 4.08054 8.99992 2.99095C10.0895 1.90136 11.4777 1.15934 12.989 0.85872C14.5003 0.558103 16.0669 0.712391 17.4905 1.30207C18.9141 1.89176 20.1309 2.89035 20.987 4.17157C21.8431 5.45279 22.3 6.9591 22.3 8.50002C22.2976 10.5656 21.476 12.5459 20.0154 14.0065C18.5548 15.467 16.5746 16.2886 14.509 16.291ZM14.509 1.37602C13.1 1.37602 11.7226 1.79383 10.5511 2.57663C9.37957 3.35942 8.46647 4.47204 7.92727 5.77378C7.38807 7.07552 7.247 8.50792 7.52188 9.88984C7.79676 11.2718 8.47525 12.5411 9.47156 13.5374C10.4679 14.5338 11.7372 15.2123 13.1192 15.4871C14.5011 15.762 15.9335 15.6209 17.2352 15.0817C18.537 14.5425 19.6496 13.6294 20.4324 12.4579C21.2152 11.2864 21.633 9.90901 21.633 8.50002C21.6309 6.61127 20.8796 4.80048 19.5441 3.46493C18.2085 2.12938 16.3977 1.37814 14.509 1.37602Z" fill="#707070"/>
</g>
</svg>
