<svg width="66" height="66" viewBox="0 0 66 66" fill="none" xmlns="http://www.w3.org/2000/svg">
<mask id="mask0_1_11" style="mask-type:luminance" maskUnits="userSpaceOnUse" x="0" y="0" width="66" height="66">
<path d="M66 0H0V66H66V0Z" fill="white"/>
</mask>
<g mask="url(#mask0_1_11)">
<path d="M47.282 66.203C45.9025 66.2064 44.5271 66.0534 43.182 65.747C38.3255 64.6581 34.0905 61.7065 31.388 57.527C29.8207 55.1278 28.8359 52.3954 28.512 49.548C28.4154 48.7983 28.3683 48.043 28.371 47.287C28.3547 43.0991 29.7505 39.028 32.333 35.731C34.3062 33.1567 36.9101 31.1349 39.893 29.861C39.9412 29.8405 39.9906 29.8232 40.041 29.809C44.6836 27.8885 49.8985 27.8885 54.541 29.809C54.5877 29.822 54.6334 29.8381 54.678 29.857C57.6707 31.1327 60.2848 33.1569 62.269 35.735C64.8306 39.0379 66.2146 43.1023 66.201 47.282C66.2004 48.0459 66.1492 48.8089 66.048 49.566C65.7217 52.4087 64.7358 55.1358 63.169 57.53C60.4799 61.7139 56.2472 64.6665 51.392 65.745C50.0444 66.0498 48.6667 66.2018 47.285 66.198M40.71 32.078C38.1447 33.1959 35.9059 34.9478 34.204 37.169C31.9424 40.0536 30.7199 43.6166 30.734 47.282C30.7344 47.9415 30.7782 48.6003 30.865 49.254C31.1462 51.7448 32.0064 54.1353 33.377 56.234C35.7434 59.8958 39.4535 62.4815 43.708 63.434C46.0687 63.9637 48.5174 63.9637 50.878 63.434C55.1278 62.4905 58.8325 59.9058 61.185 56.243C62.5567 54.1484 63.4191 51.7617 63.703 49.274C63.7919 48.6111 63.8366 47.9429 63.837 47.274C63.8492 43.6154 62.6376 40.0578 60.395 37.167C58.6812 34.9403 56.4298 33.1854 53.852 32.067C53.8105 32.0551 53.7698 32.0407 53.73 32.024C51.6901 31.1647 49.499 30.722 47.2855 30.722C45.072 30.722 42.8809 31.1647 40.841 32.024C40.7982 32.0418 40.7545 32.0572 40.71 32.07" fill="#6336CD"/>
<path d="M51.678 55.203H42.91C42.6604 55.203 42.4172 55.1239 42.2153 54.9771C42.0134 54.8304 41.8631 54.6234 41.786 54.386L39.077 46.047C38.9997 45.8096 38.9996 45.5538 39.0767 45.3163C39.1537 45.0788 39.304 44.8718 39.506 44.725L46.6 39.571C46.8021 39.4245 47.0454 39.3456 47.295 39.3456C47.5446 39.3456 47.7879 39.4245 47.99 39.571L55.084 44.725C55.286 44.8718 55.4363 45.0788 55.5133 45.3163C55.5904 45.5538 55.5903 45.8096 55.513 46.047L52.804 54.386C52.7269 54.6234 52.5767 54.8304 52.3747 54.9771C52.1728 55.1239 51.9296 55.203 51.68 55.203M43.771 52.838H50.821L53 46.133L47.3 41.989L41.6 46.133L43.771 52.838Z" fill="#6336CD"/>
<path d="M47.282 66.203C45.9025 66.2064 44.5271 66.0534 43.182 65.747C38.3255 64.6581 34.0905 61.7065 31.388 57.527C29.8207 55.1278 28.8359 52.3954 28.512 49.548C28.4154 48.7983 28.3683 48.043 28.371 47.287C28.3547 43.0991 29.7505 39.028 32.333 35.731C34.3062 33.1567 36.9101 31.1349 39.893 29.861C39.9412 29.8405 39.9906 29.8232 40.041 29.809C44.6836 27.8885 49.8985 27.8885 54.541 29.809C54.5877 29.822 54.6334 29.8381 54.678 29.857C57.6707 31.1327 60.2848 33.1569 62.269 35.735C64.8306 39.0379 66.2146 43.1023 66.201 47.282C66.2004 48.0459 66.1492 48.8089 66.048 49.566C65.7217 52.4087 64.7358 55.1358 63.169 57.53C60.4799 61.7139 56.2472 64.6665 51.392 65.745C50.0444 66.0498 48.6667 66.2018 47.285 66.198M40.71 32.078C38.1447 33.1959 35.9059 34.9478 34.204 37.169C31.9424 40.0536 30.7199 43.6166 30.734 47.282C30.7344 47.9415 30.7782 48.6003 30.865 49.254C31.1462 51.7448 32.0064 54.1353 33.377 56.234C35.7434 59.8958 39.4535 62.4815 43.708 63.434C46.0687 63.9637 48.5174 63.9637 50.878 63.434C55.1278 62.4905 58.8325 59.9058 61.185 56.243C62.5567 54.1484 63.4191 51.7617 63.703 49.274C63.7919 48.6111 63.8366 47.9429 63.837 47.274C63.8492 43.6154 62.6376 40.0578 60.395 37.167C58.6812 34.9403 56.4298 33.1854 53.852 32.067C53.8105 32.0551 53.7698 32.0407 53.73 32.024C51.6901 31.1647 49.499 30.722 47.2855 30.722C45.072 30.722 42.8809 31.1647 40.841 32.024C40.7982 32.0418 40.7545 32.0572 40.71 32.07" fill="#6336CD"/>
<path d="M47.282 66.203C45.9025 66.2064 44.5271 66.0534 43.182 65.747C38.3255 64.6581 34.0905 61.7065 31.388 57.527C29.8207 55.1278 28.8359 52.3954 28.512 49.548C28.4154 48.7983 28.3683 48.043 28.371 47.287C28.3547 43.0991 29.7505 39.028 32.333 35.731C34.3062 33.1567 36.9101 31.1349 39.893 29.861C39.9412 29.8405 39.9906 29.8232 40.041 29.809C44.6836 27.8885 49.8985 27.8885 54.541 29.809C54.5877 29.822 54.6334 29.8381 54.678 29.857C57.6707 31.1327 60.2848 33.1569 62.269 35.735C64.8306 39.0379 66.2146 43.1023 66.201 47.282C66.2004 48.0459 66.1492 48.8089 66.048 49.566C65.7217 52.4087 64.7358 55.1358 63.169 57.53C60.4799 61.7139 56.2472 64.6665 51.392 65.745C50.0444 66.0498 48.6667 66.2018 47.285 66.198M40.71 32.078C38.1447 33.1959 35.9059 34.9478 34.204 37.169C31.9424 40.0536 30.7199 43.6166 30.734 47.282C30.7344 47.9415 30.7782 48.6003 30.865 49.254C31.1462 51.7448 32.0064 54.1353 33.377 56.234C35.7434 59.8958 39.4535 62.4815 43.708 63.434C46.0687 63.9637 48.5174 63.9637 50.878 63.434C55.1278 62.4905 58.8325 59.9058 61.185 56.243C62.5567 54.1484 63.4191 51.7617 63.703 49.274C63.7919 48.6111 63.8366 47.9429 63.837 47.274C63.8492 43.6154 62.6376 40.0578 60.395 37.167C58.6812 34.9403 56.4298 33.1854 53.852 32.067C53.8105 32.0551 53.7698 32.0407 53.73 32.024C51.6901 31.1647 49.499 30.722 47.2855 30.722C45.072 30.722 42.8809 31.1647 40.841 32.024C40.7982 32.0418 40.7545 32.0572 40.71 32.07" fill="#6336CD"/>
<path d="M47.282 66.203C45.9025 66.2064 44.5271 66.0534 43.182 65.747C38.3255 64.6581 34.0905 61.7065 31.388 57.527C29.8207 55.1278 28.8359 52.3954 28.512 49.548C28.4154 48.7983 28.3683 48.043 28.371 47.287C28.3547 43.0991 29.7505 39.028 32.333 35.731C34.3062 33.1567 36.9101 31.1349 39.893 29.861C39.9412 29.8405 39.9906 29.8232 40.041 29.809C44.6836 27.8885 49.8985 27.8885 54.541 29.809C54.5877 29.822 54.6334 29.8381 54.678 29.857C57.6707 31.1327 60.2848 33.1569 62.269 35.735C64.8306 39.0379 66.2146 43.1023 66.201 47.282C66.2004 48.0459 66.1492 48.8089 66.048 49.566C65.7217 52.4087 64.7358 55.1358 63.169 57.53C60.4799 61.7139 56.2472 64.6665 51.392 65.745C50.0444 66.0498 48.6667 66.2018 47.285 66.198M40.71 32.078C38.1447 33.1959 35.9059 34.9478 34.204 37.169C31.9424 40.0536 30.7199 43.6166 30.734 47.282C30.7344 47.9415 30.7782 48.6003 30.865 49.254C31.1462 51.7448 32.0064 54.1353 33.377 56.234C35.7434 59.8958 39.4535 62.4815 43.708 63.434C46.0687 63.9637 48.5174 63.9637 50.878 63.434C55.1278 62.4905 58.8325 59.9058 61.185 56.243C62.5567 54.1484 63.4191 51.7617 63.703 49.274C63.7919 48.6111 63.8366 47.9429 63.837 47.274C63.8492 43.6154 62.6376 40.0578 60.395 37.167C58.6812 34.9403 56.4298 33.1854 53.852 32.067C53.8105 32.0551 53.7698 32.0407 53.73 32.024C51.6901 31.1647 49.499 30.722 47.2855 30.722C45.072 30.722 42.8809 31.1647 40.841 32.024C40.7982 32.0418 40.7545 32.0572 40.71 32.07" fill="#6336CD"/>
<path d="M47.282 66.203C45.9025 66.2064 44.5271 66.0534 43.182 65.747C38.3255 64.6581 34.0905 61.7065 31.388 57.527C29.8207 55.1278 28.8359 52.3954 28.512 49.548C28.4154 48.7983 28.3683 48.043 28.371 47.287C28.3547 43.0991 29.7505 39.028 32.333 35.731C34.3062 33.1567 36.9101 31.1349 39.893 29.861C39.9412 29.8405 39.9906 29.8232 40.041 29.809C44.6836 27.8885 49.8985 27.8885 54.541 29.809C54.5877 29.822 54.6334 29.8381 54.678 29.857C57.6707 31.1327 60.2848 33.1569 62.269 35.735C64.8306 39.0379 66.2146 43.1023 66.201 47.282C66.2004 48.0459 66.1492 48.8089 66.048 49.566C65.7217 52.4087 64.7358 55.1358 63.169 57.53C60.4799 61.7139 56.2472 64.6665 51.392 65.745C50.0444 66.0498 48.6667 66.2018 47.285 66.198M40.71 32.078C38.1447 33.1959 35.9059 34.9478 34.204 37.169C31.9424 40.0536 30.7199 43.6166 30.734 47.282C30.7344 47.9415 30.7782 48.6003 30.865 49.254C31.1462 51.7448 32.0064 54.1353 33.377 56.234C35.7434 59.8958 39.4535 62.4815 43.708 63.434C46.0687 63.9637 48.5174 63.9637 50.878 63.434C55.1278 62.4905 58.8325 59.9058 61.185 56.243C62.5567 54.1484 63.4191 51.7617 63.703 49.274C63.7919 48.6111 63.8366 47.9429 63.837 47.274C63.8492 43.6154 62.6376 40.0578 60.395 37.167C58.6812 34.9403 56.4298 33.1854 53.852 32.067C53.8105 32.0551 53.7698 32.0407 53.73 32.024C51.6901 31.1647 49.499 30.722 47.2855 30.722C45.072 30.722 42.8809 31.1647 40.841 32.024C40.7982 32.0418 40.7545 32.0572 40.71 32.07" fill="#6336CD"/>
<path d="M47.282 37.829C47.0323 37.8291 46.789 37.7499 46.587 37.603L39.493 32.448C39.2942 32.3035 39.1454 32.1007 39.0672 31.8677C38.9891 31.6347 38.9855 31.3831 39.057 31.148L39.223 30.604C39.2809 30.4138 39.3859 30.2412 39.5282 30.1022C39.6704 29.9633 39.8454 29.8624 40.037 29.809C42.345 28.8551 44.8187 28.3664 47.3161 28.3709C49.8135 28.3753 52.2854 28.8729 54.59 29.835C54.7662 29.8959 54.9259 29.997 55.0562 30.1303C55.1866 30.2636 55.2841 30.4255 55.341 30.603L55.507 31.147C55.5783 31.3822 55.5747 31.6337 55.4966 31.8666C55.4184 32.0996 55.2697 32.3024 55.071 32.447L47.977 37.602C47.7737 37.75 47.5285 37.8291 47.277 37.828M42.232 31.518L47.277 35.184L52.323 31.518C49.0404 30.4737 45.5146 30.4737 42.232 31.518Z" fill="#6336CD"/>
<path d="M47.293 41.367C46.9795 41.367 46.6789 41.2425 46.4572 41.0208C46.2355 40.7991 46.111 40.4985 46.111 40.185V36.638C46.111 36.3244 46.2356 36.0236 46.4573 35.8018C46.6791 35.5801 46.9799 35.4555 47.2935 35.4555C47.6071 35.4555 47.9079 35.5801 48.1296 35.8018C48.3514 36.0236 48.476 36.3244 48.476 36.638V40.183C48.476 40.4965 48.3515 40.7971 48.1298 41.0188C47.9081 41.2405 47.6075 41.365 47.294 41.365" fill="#6336CD"/>
<path d="M29.69 50.597C29.4035 50.5971 29.1267 50.4931 28.9111 50.3044C28.6955 50.1156 28.5558 49.855 28.518 49.571C28.4189 48.8137 28.3698 48.0507 28.371 47.287C28.3548 43.0991 29.7506 39.028 32.333 35.731C32.4435 35.5893 32.5849 35.4747 32.7464 35.3958C32.9079 35.317 33.0853 35.276 33.265 35.276H33.336C33.5855 35.276 33.8286 35.3549 34.0305 35.5015C34.2324 35.6481 34.3827 35.8548 34.46 36.092L37.179 44.439C37.2567 44.6768 37.2569 44.9331 37.1796 45.171C37.1023 45.4089 36.9516 45.6162 36.749 45.763L30.388 50.374C30.1861 50.5202 29.9433 50.5989 29.694 50.599M32.936 39.05C31.4987 41.5266 30.7398 44.3385 30.736 47.202L34.665 44.354L32.936 39.05Z" fill="#6336CD"/>
<path d="M39.423 47.086C39.2987 47.086 39.1752 47.0664 39.057 47.028L35.684 45.928C35.3858 45.8311 35.1382 45.6196 34.9959 45.3402C34.8536 45.0608 34.8281 44.7363 34.925 44.438C35.0219 44.1398 35.2334 43.8923 35.5128 43.7499C35.7922 43.6076 36.1168 43.5821 36.415 43.679L39.788 44.779C40.055 44.8667 40.2821 45.0465 40.4286 45.2863C40.5751 45.5262 40.6315 45.8103 40.5875 46.0879C40.5436 46.3655 40.4023 46.6184 40.1889 46.8012C39.9756 46.9841 39.704 47.0851 39.423 47.086Z" fill="#6336CD"/>
<path d="M43.452 65.778C43.3669 65.7782 43.2821 65.7692 43.199 65.751C38.3375 64.6638 34.0975 61.7108 31.392 57.528C31.277 57.3495 31.2123 57.1432 31.2045 56.931C31.1968 56.7188 31.2464 56.5084 31.3481 56.3219C31.4498 56.1355 31.5999 55.9799 31.7825 55.8715C31.9652 55.7632 32.1736 55.706 32.386 55.706H40.946C41.1956 55.7061 41.4388 55.7851 41.6407 55.9319C41.8427 56.0787 41.9929 56.2856 42.07 56.523L44.576 64.231C44.6338 64.4085 44.6487 64.597 44.6196 64.7814C44.5905 64.9657 44.5182 65.1405 44.4086 65.2915C44.2989 65.4425 44.1551 65.5654 43.9888 65.6501C43.8226 65.7349 43.6386 65.779 43.452 65.779M34.743 58.071C36.5981 60.2217 38.9713 61.8634 41.638 62.841L40.087 58.071H34.743Z" fill="#6336CD"/>
<path d="M40.934 58.065C40.7161 58.0648 40.5025 58.0044 40.3167 57.8904C40.131 57.7764 39.9804 57.6132 39.8816 57.419C39.7828 57.2248 39.7396 57.007 39.7568 56.7898C39.774 56.5725 39.8509 56.3643 39.979 56.188L42.064 53.319C42.2483 53.0653 42.5259 52.8953 42.8356 52.8462C43.1453 52.7972 43.4618 52.8732 43.7155 53.0575C43.9692 53.2418 44.1392 53.5194 44.1883 53.8291C44.2373 54.1388 44.1613 54.4553 43.977 54.709L41.892 57.578C41.7824 57.7291 41.6385 57.852 41.4721 57.9367C41.3057 58.0213 41.1217 58.0653 40.935 58.065" fill="#6336CD"/>
<path d="M64.875 50.597C64.6236 50.5981 64.3783 50.519 64.175 50.371L57.838 45.76C57.6361 45.6131 57.4859 45.4061 57.4089 45.1687C57.3318 44.9312 57.3319 44.6755 57.409 44.438L60.128 36.091C60.2053 35.8538 60.3556 35.6471 60.5575 35.5005C60.7594 35.3539 61.0025 35.275 61.252 35.275H61.323C61.5038 35.275 61.6822 35.3165 61.8445 35.3962C62.0067 35.476 62.1486 35.5919 62.259 35.735C64.8225 39.039 66.2076 43.1052 66.194 47.287C66.1937 48.0509 66.1429 48.8139 66.042 49.571C66.0042 49.855 65.8645 50.1156 65.6489 50.3044C65.4333 50.4931 65.1565 50.5971 64.87 50.597M59.923 44.353L63.829 47.195C63.8226 44.3399 63.0705 41.536 61.647 39.061L59.923 44.353Z" fill="#6336CD"/>
<path d="M55.164 47.086C54.883 47.0851 54.6114 46.9841 54.3981 46.8012C54.1847 46.6183 54.0434 46.3655 53.9994 46.0879C53.9555 45.8103 54.0119 45.5261 54.1584 45.2863C54.3049 45.0465 54.532 44.8666 54.799 44.779L58.172 43.679C58.4702 43.5821 58.7948 43.6076 59.0742 43.7499C59.3536 43.8923 59.5651 44.1398 59.662 44.438C59.7589 44.7362 59.7334 45.0608 59.5911 45.3402C59.4488 45.6196 59.2012 45.8311 58.903 45.928L55.53 47.028C55.4118 47.0664 55.2883 47.086 55.164 47.086Z" fill="#6336CD"/>
<path d="M51.136 65.778C50.9494 65.778 50.7654 65.7339 50.5992 65.6491C50.4329 65.5644 50.2891 65.4415 50.1794 65.2905C50.0698 65.1395 49.9975 64.9647 49.9684 64.7804C49.9393 64.5961 49.9542 64.4075 50.012 64.23L52.519 56.523C52.5961 56.2856 52.7463 56.0787 52.9483 55.9319C53.1502 55.7852 53.3934 55.7061 53.643 55.706H62.179C62.3912 55.7054 62.5998 55.7619 62.7827 55.8696C62.9656 55.9774 63.1161 56.1324 63.2184 56.3183C63.3207 56.5043 63.371 56.7144 63.3641 56.9266C63.3571 57.1387 63.2932 57.3451 63.179 57.524C60.4893 61.7136 56.2531 64.6707 51.393 65.751C51.3099 65.7692 51.225 65.7782 51.14 65.778M54.505 58.07L52.954 62.84C55.6187 61.8658 57.9884 60.2233 59.836 58.07H54.505Z" fill="#6336CD"/>
<path d="M53.653 58.065C53.4663 58.0653 53.2823 58.0213 53.1159 57.9367C52.9495 57.852 52.8056 57.7291 52.696 57.578L50.611 54.709C50.5197 54.5834 50.4541 54.441 50.4178 54.2901C50.3816 54.1391 50.3754 53.9825 50.3997 53.8291C50.424 53.6757 50.4783 53.5287 50.5594 53.3963C50.6405 53.2639 50.7469 53.1488 50.8725 53.0575C50.9981 52.9662 51.1405 52.9006 51.2914 52.8643C51.4424 52.8281 51.5991 52.8219 51.7524 52.8462C51.9058 52.8705 52.0528 52.9247 52.1852 53.0059C52.3176 53.087 52.4327 53.1934 52.524 53.319L54.609 56.188C54.7371 56.3643 54.8141 56.5725 54.8312 56.7898C54.8484 57.007 54.8052 57.2248 54.7064 57.419C54.6076 57.6132 54.457 57.7764 54.2713 57.8904C54.0855 58.0044 53.8709 58.0648 53.653 58.065Z" fill="#6336CD"/>
<path d="M18.865 62.779C18.5872 62.7785 18.3184 62.6802 18.1057 62.5014C17.8931 62.3226 17.7501 62.0746 17.702 61.801L15.243 47.829C15.2161 47.6761 15.2195 47.5193 15.2532 47.3678C15.2868 47.2162 15.35 47.0727 15.4391 46.9455C15.5282 46.8184 15.6415 46.71 15.7725 46.6266C15.9034 46.5432 16.0496 46.4864 16.2025 46.4595C16.3554 46.4326 16.5121 46.436 16.6637 46.4697C16.8153 46.5033 16.9588 46.5665 17.086 46.6556C17.2131 46.7447 17.3215 46.858 17.4049 46.989C17.4883 47.12 17.5451 47.2661 17.572 47.419L19.826 60.227L28.161 58.76C28.4698 58.7056 28.7876 58.7762 29.0445 58.9561C29.3013 59.1361 29.4761 59.4107 29.5305 59.7195C29.5849 60.0283 29.5143 60.3461 29.3344 60.603C29.1544 60.8598 28.8798 61.0346 28.571 61.089L19.071 62.76C19.003 62.7719 18.934 62.7789 18.865 62.779Z" fill="#6336CD"/>
<path d="M16.61 48.696C15.5452 48.696 14.5003 48.4078 13.5861 47.862C12.6718 47.3162 11.9223 46.5332 11.417 45.596L0.584997 25.579C0.00681376 24.5066 -0.152989 23.2578 0.136514 22.0744C0.426018 20.8909 1.14424 19.8569 2.15219 19.1725C3.16014 18.4881 4.38614 18.2019 5.59293 18.3694C6.79972 18.5368 7.90148 19.146 8.685 20.079L6.507 10.764C6.22318 9.53156 6.43025 8.23704 7.08435 7.15462C7.73845 6.07219 8.7882 5.28689 10.0113 4.96504C11.2343 4.64319 12.5347 4.81006 13.6368 5.43032C14.739 6.05058 15.5564 7.0755 15.916 8.28801L16.716 11.005L16.098 6.09601C15.9205 4.69101 16.2996 3.2723 17.1542 2.14306C18.0088 1.01381 19.2711 0.263581 20.6715 0.0526879C22.0719 -0.158205 23.4992 0.186963 24.6485 1.01443C25.7978 1.84191 26.5778 3.08605 26.822 4.48101L27.98 11.063L28.013 8.13901C28.0278 6.8722 28.537 5.66131 29.432 4.76462C30.3269 3.86793 31.5369 3.35642 32.8036 3.3392C34.0704 3.32198 35.2938 3.80041 36.2128 4.67244C37.1318 5.54447 37.6738 6.74107 37.723 8.00701L39.003 24.22C39.0087 24.293 39.0378 24.3622 39.086 24.4172C39.1342 24.4723 39.1989 24.5104 39.2705 24.5258C39.342 24.5412 39.4166 24.5331 39.4832 24.5027C39.5498 24.4723 39.6048 24.4212 39.64 24.357L43.126 18.026C43.138 18.005 43.15 17.984 43.162 17.964C43.9237 16.7583 45.118 15.8899 46.4999 15.5372C47.8817 15.1844 49.3462 15.3741 50.5926 16.0671C51.839 16.7602 52.7728 17.9041 53.2023 19.2641C53.6317 20.624 53.5243 22.0968 52.902 23.38L51.952 25.34C51.8153 25.6222 51.5721 25.8385 51.2758 25.9414C50.9796 26.0443 50.6547 26.0252 50.3725 25.8885C50.0903 25.7518 49.874 25.5086 49.7711 25.2124C49.6683 24.9161 49.6873 24.5912 49.824 24.309L50.774 22.349C51.1382 21.6108 51.2056 20.761 50.9623 19.9746C50.7189 19.1882 50.1834 18.525 49.4658 18.1215C48.7483 17.718 47.9034 17.605 47.105 17.8056C46.3066 18.0062 45.6156 18.5053 45.174 19.2L41.707 25.5C41.4284 26.0126 40.9913 26.4211 40.461 26.6645C39.9308 26.9079 39.336 26.9729 38.7657 26.85C38.1954 26.727 37.6803 26.4227 37.2975 25.9824C36.9146 25.5422 36.6846 24.9899 36.642 24.408L35.363 8.16801C35.363 8.15001 35.363 8.13201 35.363 8.11301C35.3383 7.46756 35.0655 6.85653 34.6015 6.4072C34.1374 5.95788 33.5179 5.70492 32.872 5.70101H32.85C32.1988 5.71028 31.5768 5.97267 31.1158 6.4326C30.6547 6.89253 30.3908 7.51387 30.38 8.16501L30.205 23.809C30.2031 24.1045 30.0906 24.3886 29.8896 24.6052C29.6887 24.8219 29.4139 24.9554 29.1194 24.9795C28.8249 25.0036 28.532 24.9165 28.2986 24.7354C28.0651 24.5543 27.9079 24.2923 27.858 24.001L24.493 4.89601C24.354 4.11071 23.9138 3.41074 23.2662 2.94528C22.6186 2.47982 21.8148 2.28566 21.0262 2.4042C20.2375 2.52273 19.5263 2.94458 19.0442 3.57984C18.562 4.2151 18.347 5.01354 18.445 5.80501L20.879 25.294C20.9172 25.5895 20.8424 25.8885 20.6696 26.1313C20.4968 26.374 20.2387 26.5425 19.947 26.603C19.6552 26.6636 19.3514 26.6117 19.0962 26.4578C18.8411 26.3039 18.6535 26.0593 18.571 25.773L13.647 8.95301C13.4782 8.31159 13.0615 7.76349 12.4886 7.4293C11.9156 7.09511 11.2334 7.0022 10.592 7.17101C9.95057 7.33982 9.40247 7.75653 9.06828 8.32945C8.7341 8.90237 8.64119 9.58459 8.81 10.226L12.91 27.766C12.9758 28.045 12.938 28.3385 12.8035 28.5917C12.6691 28.8449 12.4472 29.0406 12.1792 29.1424C11.9112 29.2441 11.6153 29.245 11.3467 29.1449C11.0781 29.0447 10.855 28.8504 10.719 28.598L7.162 22.02C7.00224 21.7245 6.78586 21.4634 6.52519 21.2516C6.26453 21.0397 5.96469 20.8813 5.64279 20.7853C5.3209 20.6894 4.98325 20.6577 4.64914 20.6923C4.31502 20.7268 3.99097 20.8268 3.6955 20.9865C3.40002 21.1463 3.13891 21.3627 2.92706 21.6233C2.71521 21.884 2.55678 22.1838 2.46081 22.5057C2.36484 22.8276 2.33321 23.1653 2.36773 23.4994C2.40225 23.8335 2.50224 24.1575 2.662 24.453L13.493 44.473C13.8467 45.1281 14.3979 45.6552 15.0682 45.9792C15.7385 46.3032 16.4939 46.4078 17.227 46.278L24.611 44.978C24.7639 44.9511 24.9206 44.9546 25.0722 44.9882C25.2238 45.0219 25.3673 45.085 25.4945 45.1741C25.6216 45.2632 25.73 45.3765 25.8134 45.5075C25.8968 45.6385 25.9536 45.7846 25.9805 45.9375C26.0074 46.0904 26.004 46.2472 25.9703 46.3988C25.9367 46.5503 25.8735 46.6938 25.7844 46.821C25.6953 46.9482 25.582 47.0565 25.451 47.1399C25.32 47.2233 25.1739 47.2801 25.021 47.307L17.637 48.607C17.2969 48.6669 16.9523 48.697 16.607 48.697" fill="#6336CD"/>
</g>
</svg>
