<svg width="132" height="71" viewBox="0 0 132 71" fill="none" xmlns="http://www.w3.org/2000/svg">
<mask id="mask0_30_102" style="mask-type:luminance" maskUnits="userSpaceOnUse" x="0" y="0" width="132" height="71">
<path d="M132 0.399994H0.979034V71H132V0.399994Z" fill="white"/>
</mask>
<g mask="url(#mask0_30_102)">
<path d="M114.242 21.407C110.229 21.4413 106.342 22.8138 103.197 25.307C100.052 22.814 96.1658 21.4415 92.153 21.407C89.8467 21.3974 87.5613 21.8445 85.4286 22.7226C83.2959 23.6008 81.3583 24.8926 79.7274 26.5234C78.0966 28.1543 76.8048 30.0919 75.9267 32.2246C75.0485 34.3572 74.6014 36.6427 74.611 38.949V63.637H87.388V38.949C87.388 37.6854 87.89 36.4735 88.7835 35.58C89.677 34.6865 90.8889 34.1845 92.1525 34.1845C93.4162 34.1845 94.628 34.6865 95.5215 35.58C96.4151 36.4735 96.917 37.6854 96.917 38.949V63.637H109.694V38.949C109.694 37.6854 110.196 36.4735 111.09 35.58C111.983 34.6865 113.195 34.1845 114.459 34.1845C115.722 34.1845 116.934 34.6865 117.828 35.58C118.721 36.4735 119.223 37.6854 119.223 38.949V63.637H132.001V38.949C131.899 34.2913 129.988 29.8561 126.674 26.5821C123.359 23.3081 118.901 21.4521 114.242 21.407Z" fill="black"/>
<path d="M39.527 58.006L20.686 39.165C19.8632 38.3076 18.8104 37.7058 17.654 37.432V55.407L29.782 67.532C31.0536 68.7807 32.7644 69.4802 34.5465 69.4802C36.3286 69.4802 38.0395 68.7807 39.311 67.532C39.9668 66.9301 40.4942 66.2018 40.8616 65.3911C41.229 64.5803 41.4288 63.7036 41.4491 62.8137C41.4693 61.9238 41.3096 61.039 40.9795 60.2123C40.6494 59.3856 40.1557 58.6342 39.528 58.003" fill="black"/>
<path d="M65.949 55.624C66.8891 56.5442 67.6268 57.6505 68.115 58.872V23.139H55.337V45.012L65.949 55.624Z" fill="black"/>
<path d="M63.571 58.011L18.088 12.528L17.871 12.311V31.369L54.037 67.535C55.3086 68.7837 57.0194 69.4832 58.8015 69.4832C60.5836 69.4832 62.2945 68.7837 63.566 67.535C64.8147 66.2635 65.5143 64.5526 65.5143 62.7705C65.5143 60.9884 64.8147 59.2775 63.566 58.006" fill="black"/>
</g>
<mask id="mask1_30_102" style="mask-type:luminance" maskUnits="userSpaceOnUse" x="17" y="0" width="47" height="56">
<path d="M56.526 0.399994C54.7801 0.420233 53.1106 1.11924 51.871 2.34899L17.871 36.349V55.407L61.4 11.878C62.6487 10.6065 63.3483 8.8956 63.3483 7.11349C63.3483 5.33139 62.6487 3.62051 61.4 2.34899C60.1602 1.11909 58.4903 0.420079 56.744 0.399994L56.526 0.399994Z" fill="white"/>
</mask>
<g mask="url(#mask1_30_102)">
<path d="M40.9351 -22.664L-9.63297 27.904L40.9351 78.472L91.5031 27.904L40.9351 -22.664Z" fill="url(#paint0_linear_30_102)"/>
</g>
<mask id="mask2_30_102" style="mask-type:luminance" maskUnits="userSpaceOnUse" x="17" y="0" width="23" height="32">
<path d="M32.487 0.399994C30.7414 0.420492 29.0723 1.11948 27.833 2.34899L17.871 12.311V31.369L37.362 11.878C38.6107 10.6065 39.3103 8.8956 39.3103 7.11349C39.3103 5.33139 38.6107 3.62051 37.362 2.34899C36.122 1.11945 34.4522 0.420499 32.706 0.399994L32.487 0.399994Z" fill="white"/>
</mask>
<g mask="url(#mask2_30_102)">
<path d="M28.9163 -10.6452L2.38703 15.884L28.9163 42.4132L55.4455 15.884L28.9163 -10.6452Z" fill="url(#paint1_linear_30_102)"/>
</g>
<mask id="mask3_30_102" style="mask-type:luminance" maskUnits="userSpaceOnUse" x="0" y="14" width="16" height="16">
<path d="M0.979034 21.84C0.970632 22.8093 1.15535 23.7705 1.5224 24.6676C1.88945 25.5647 2.43148 26.3797 3.11688 27.0651C3.80228 27.7505 4.61731 28.2926 5.51443 28.6596C6.41154 29.0267 7.37277 29.2114 8.34203 29.203C10.2948 29.203 12.1676 28.4272 13.5485 27.0464C14.9293 25.6656 15.705 23.7928 15.705 21.84C15.705 19.8872 14.9293 18.0144 13.5485 16.6336C12.1676 15.2527 10.2948 14.477 8.34203 14.477C7.37277 14.4686 6.41154 14.6533 5.51443 15.0204C4.61731 15.3874 3.80228 15.9294 3.11688 16.6148C2.43148 17.3002 1.88945 18.1153 1.5224 19.0124C1.15535 19.9095 0.970632 20.8707 0.979034 21.84Z" fill="white"/>
</mask>
<g mask="url(#mask3_30_102)">
<path d="M8.34224 7.11376L-6.38396 21.84L8.34224 36.5662L23.0684 21.84L8.34224 7.11376Z" fill="url(#paint2_linear_30_102)"/>
</g>
<mask id="mask4_30_102" style="mask-type:luminance" maskUnits="userSpaceOnUse" x="0" y="0" width="132" height="71">
<path d="M132 0.399994H0.979034V71H132V0.399994Z" fill="white"/>
</mask>
<g mask="url(#mask4_30_102)">
<path d="M96.917 66.669H98C98.1675 66.6721 98.3322 66.7126 98.482 66.7875C98.6318 66.8625 98.763 66.9699 98.866 67.102C99.083 67.319 99.083 67.319 99.083 67.535C99.0973 67.6526 99.0852 67.772 99.0476 67.8844C99.0101 67.9968 98.9481 68.0995 98.866 68.185C98.8947 68.1843 98.9232 68.1894 98.9499 68.2001C98.9765 68.2108 99.0007 68.2267 99.021 68.247C99.0413 68.2673 99.0572 68.2915 99.0679 68.3181C99.0786 68.3448 99.0837 68.3733 99.083 68.402C99.3 68.619 99.3 68.619 99.3 68.835V69.052C99.3 69.269 99.083 69.702 98.867 69.702C98.8383 69.7013 98.8098 69.7064 98.7832 69.7171C98.7565 69.7278 98.7323 69.7437 98.7121 69.764C98.6918 69.7843 98.6758 69.8085 98.6651 69.8351C98.6545 69.8618 98.6493 69.8903 98.65 69.919H97.134V66.669H96.917ZM97.35 68.185V69.269H98C98.217 69.269 98.433 69.269 98.433 69.052V68.835C98.433 68.618 98.433 68.618 98.216 68.402H97.783L97.35 68.185ZM97.35 67.102V67.969H98C98.1177 67.9832 98.237 67.9711 98.3494 67.9336C98.4618 67.8961 98.5645 67.834 98.65 67.752V67.535C98.65 67.318 98.433 67.318 98.433 67.102H97.35Z" fill="black"/>
<path d="M99.516 67.752L99.733 68.402L99.95 69.268V69.051L100.167 68.401L100.384 67.751H100.817L100.383 68.835L99.95 69.701L99.517 70.567V70.784H99.084L99.517 69.918L99.083 68.835L98.65 67.752V67.535L99.516 67.752Z" fill="black"/>
<path d="M104.064 66.669C104.466 66.669 104.852 66.8287 105.136 67.113C105.42 67.3973 105.58 67.7829 105.58 68.185C105.58 68.587 105.42 68.9726 105.136 69.2569C104.852 69.5412 104.466 69.701 104.064 69.701C103.631 69.701 103.414 69.484 102.981 69.268L102.764 69.051C102.592 68.797 102.515 68.4902 102.547 68.185C102.555 67.7834 102.709 67.3984 102.98 67.102L103.197 66.885C103.414 66.668 103.63 66.668 104.063 66.668M102.98 68.184C102.983 68.3514 103.024 68.5161 103.099 68.6659C103.173 68.8158 103.281 68.947 103.413 69.05C103.499 69.132 103.601 69.1941 103.714 69.2316C103.826 69.2691 103.945 69.2812 104.063 69.267C104.23 69.2638 104.395 69.2233 104.545 69.1484C104.695 69.0735 104.826 68.9661 104.929 68.834C105.011 68.7485 105.073 68.6458 105.111 68.5334C105.148 68.421 105.16 68.3016 105.146 68.184C105.146 67.967 104.929 67.534 104.929 67.318C104.826 67.1859 104.695 67.0785 104.545 67.0035C104.395 66.9286 104.23 66.8881 104.063 66.885C103.737 66.939 103.436 67.0899 103.197 67.318C103.046 67.581 102.971 67.8808 102.98 68.184Z" fill="black"/>
<path d="M107.312 66.669C107.328 66.8353 107.405 66.9897 107.529 67.102L108.612 69.702H108.179V69.485L107.962 68.835H106.446L106.229 69.485H105.796L106.879 66.885L107.096 66.452L107.312 66.669ZM106.446 68.618H107.529L106.879 67.318C106.852 67.5473 106.778 67.7686 106.662 67.968L106.446 68.618Z" fill="black"/>
<path d="M108.829 66.669H109.262V68.185C109.649 67.6419 110.084 67.1346 110.562 66.669H111.212L109.912 68.185L111.212 69.701H110.562L109.479 68.401L109.046 68.834V69.7H108.612L108.829 66.669Z" fill="black"/>
<path d="M112.076 66.669H111.643V69.701H112.076V66.669Z" fill="black"/>
<path d="M113.376 67.535C113.494 67.5208 113.613 67.5328 113.725 67.5704C113.838 67.6079 113.941 67.6699 114.026 67.752V67.535H114.459V69.484H114.026V69.267C113.941 69.3491 113.838 69.4111 113.725 69.4486C113.613 69.4861 113.494 69.4982 113.376 69.484C113.05 69.43 112.749 69.2791 112.51 69.051C112.428 68.9655 112.366 68.8628 112.328 68.7504C112.291 68.638 112.279 68.5186 112.293 68.401C112.347 68.0754 112.498 67.7736 112.726 67.535C112.943 67.752 113.159 67.535 113.376 67.535ZM112.943 68.618C112.929 68.7356 112.941 68.855 112.978 68.9674C113.016 69.0798 113.078 69.1825 113.16 69.268C113.189 69.2673 113.217 69.2725 113.244 69.2831C113.271 69.2938 113.295 69.3097 113.315 69.33C113.335 69.3503 113.351 69.3745 113.362 69.4011C113.373 69.4278 113.378 69.4563 113.377 69.485C113.594 69.485 113.594 69.485 113.81 69.268C114.026 69.051 114.027 69.051 114.027 68.835C114.041 68.7173 114.029 68.598 113.992 68.4856C113.954 68.3732 113.892 68.2705 113.81 68.185C113.781 68.1857 113.753 68.1805 113.726 68.1699C113.7 68.1592 113.675 68.1433 113.655 68.123C113.635 68.1027 113.619 68.0785 113.608 68.0518C113.597 68.0252 113.592 67.9967 113.593 67.968C113.376 67.968 113.376 67.968 113.16 68.185C113.036 68.2973 112.959 68.4517 112.943 68.618Z" fill="black"/>
<path d="M115.975 67.752C116.143 67.7551 116.307 67.7956 116.457 67.8706C116.607 67.9455 116.738 68.0529 116.841 68.185V69.918H116.408V68.618C116.408 68.401 116.408 68.401 116.191 68.185H115.541L115.324 68.402V69.702H114.892V67.752H115.325V67.969C115.354 67.9697 115.382 67.9645 115.409 67.9539C115.436 67.9432 115.46 67.9272 115.48 67.9069C115.5 67.8867 115.516 67.8625 115.527 67.8358C115.538 67.8092 115.543 67.7807 115.542 67.752H115.975Z" fill="black"/>
<path d="M119.441 66.669V69.701H119.008V69.484H118.358C118.24 69.4982 118.121 69.4861 118.009 69.4486C117.896 69.4111 117.794 69.349 117.708 69.267H117.491C117.274 69.267 117.491 69.267 117.274 69.05C117.275 69.0213 117.27 68.9928 117.259 68.9661C117.248 68.9395 117.232 68.9153 117.212 68.895C117.192 68.8747 117.168 68.8588 117.141 68.8481C117.114 68.8374 117.086 68.8323 117.057 68.833C117.034 68.6688 116.958 68.5166 116.84 68.4V67.967C116.84 67.75 117.057 67.75 117.057 67.534L117.274 67.317C117.462 67.1763 117.69 67.1002 117.924 67.1002C118.158 67.1002 118.387 67.1763 118.574 67.317V66.019H119.441V66.669ZM118.791 68.185C118.679 68.0613 118.524 67.9839 118.358 67.968C118.141 67.968 117.925 67.968 117.925 68.185C117.708 68.402 117.708 68.402 117.708 68.618V68.835C117.707 68.8637 117.712 68.8922 117.723 68.9188C117.734 68.9455 117.75 68.9697 117.77 68.9899C117.79 69.0102 117.815 69.0262 117.841 69.0369C117.868 69.0475 117.896 69.0527 117.925 69.052C118.142 69.269 118.142 69.269 118.358 69.269H118.791C118.791 69.052 119.008 69.052 119.008 68.836C119.008 68.62 118.791 68.402 118.791 68.185Z" fill="black"/>
<path d="M122.471 67.535V67.968C122.471 68.185 122.688 68.185 122.688 68.401C122.688 68.617 122.688 68.618 122.471 68.834V69.051L122.254 69.268H122.037C122.155 69.2537 122.274 69.2658 122.386 69.3034C122.499 69.3409 122.602 69.4029 122.687 69.485H122.904V69.918C122.904 70.135 122.904 70.135 122.687 70.351L122.47 70.568H120.739V69.268C120.738 69.2393 120.743 69.2108 120.754 69.1841C120.765 69.1575 120.781 69.1333 120.801 69.113C120.821 69.0927 120.846 69.0768 120.872 69.0661C120.899 69.0554 120.927 69.0503 120.956 69.051C120.957 69.0223 120.952 68.9938 120.941 68.9671C120.93 68.9405 120.914 68.9163 120.894 68.896C120.874 68.8757 120.85 68.8598 120.823 68.8491C120.796 68.8384 120.768 68.8333 120.739 68.834V68.401C120.739 68.184 120.739 68.184 120.956 67.968H121.822C122.039 67.968 122.039 67.968 122.255 68.185C122.255 67.752 122.471 67.752 122.471 67.535ZM121.172 69.917C121.258 69.999 121.36 70.0611 121.473 70.0986C121.585 70.1361 121.704 70.1482 121.822 70.134C122.039 70.134 122.039 70.134 122.255 69.917V69.7C122.256 69.6713 122.251 69.6428 122.24 69.6161C122.229 69.5895 122.213 69.5653 122.193 69.545C122.173 69.5247 122.149 69.5088 122.122 69.4981C122.095 69.4874 122.067 69.4823 122.038 69.483H121.172V69.917ZM121.172 68.4C121.171 68.4287 121.176 68.4572 121.187 68.4838C121.198 68.5105 121.214 68.5347 121.234 68.5549C121.254 68.5752 121.279 68.5912 121.305 68.6018C121.332 68.6125 121.36 68.6177 121.389 68.617L121.606 68.834H121.823L122.04 68.617C122.041 68.5883 122.036 68.5598 122.025 68.5331C122.014 68.5065 121.998 68.4823 121.978 68.462C121.958 68.4417 121.934 68.4258 121.907 68.4151C121.88 68.4044 121.852 68.3993 121.823 68.4L121.606 68.183C121.389 68.183 121.389 68.183 121.389 68.4C121.389 68.617 121.172 68.4 121.172 68.4Z" fill="black"/>
<path d="M124.205 67.752C124.422 67.752 124.422 67.752 124.638 67.969C124.638 68.186 124.638 68.402 124.421 68.402C124.204 68.402 124.204 68.185 123.988 68.185C123.772 68.185 123.771 68.185 123.555 68.402C123.404 68.5841 123.327 68.8159 123.338 69.052V69.918H122.905V67.969H123.338V68.186C123.771 67.753 123.988 67.753 124.204 67.753" fill="black"/>
<path d="M125.937 67.535C126.055 67.5208 126.174 67.5328 126.286 67.5704C126.399 67.6079 126.502 67.6699 126.587 67.752L126.804 67.969C127.021 68.186 127.021 68.186 127.021 68.402V68.835C127.021 69.052 127.021 69.268 126.804 69.268C126.805 69.2967 126.8 69.3252 126.789 69.3518C126.778 69.3785 126.762 69.4027 126.742 69.423C126.722 69.4433 126.698 69.4592 126.671 69.4699C126.644 69.4805 126.616 69.4857 126.587 69.485L126.37 69.702H126.153C125.966 69.8427 125.737 69.9187 125.503 69.9187C125.269 69.9187 125.041 69.8427 124.853 69.702L124.636 69.485C124.419 69.268 124.636 69.485 124.636 69.268V69.051C124.636 68.834 124.419 68.834 124.419 68.618C124.419 68.402 124.419 68.401 124.636 68.185V67.968C124.636 67.751 124.636 67.968 124.853 67.751L125.071 67.535C125.504 67.752 125.721 67.535 125.937 67.535ZM125.287 68.618C125.287 68.835 125.287 68.835 125.504 69.051L125.721 69.268C125.938 69.268 125.938 69.485 126.154 69.485C126.37 69.485 126.371 69.485 126.587 69.268C126.586 69.2393 126.591 69.2108 126.602 69.1842C126.613 69.1575 126.629 69.1333 126.649 69.113C126.669 69.0927 126.694 69.0768 126.72 69.0661C126.747 69.0555 126.775 69.0503 126.804 69.051V68.835C126.804 68.618 126.804 68.618 126.587 68.402H126.154C125.937 68.402 125.937 68.402 125.721 68.619V68.835C125.288 68.402 125.287 68.618 125.287 68.618Z" fill="black"/>
<path d="M128.102 69.701C127.935 69.6978 127.77 69.6573 127.62 69.5824C127.47 69.5075 127.339 69.4001 127.236 69.268V67.535H127.669V68.835C127.669 69.052 127.669 69.052 127.886 69.268H128.536L128.753 69.051V67.751H129.186V69.7H128.753V69.483L128.536 69.7H128.103" fill="black"/>
<path d="M130.701 67.535C130.819 67.5208 130.938 67.5328 131.05 67.5704C131.163 67.6079 131.266 67.6699 131.351 67.752C131.38 67.7513 131.408 67.7565 131.435 67.7671C131.461 67.7778 131.486 67.7937 131.506 67.814C131.526 67.8343 131.542 67.8585 131.553 67.8852C131.564 67.9118 131.569 67.9403 131.568 67.969L131.785 68.186V68.403C131.785 68.62 132.002 68.836 132.002 69.053C132.016 69.1707 132.004 69.29 131.967 69.4024C131.929 69.5148 131.867 69.6175 131.785 69.703L131.568 69.92C131.483 70.0021 131.38 70.0641 131.267 70.1016C131.155 70.1391 131.036 70.1512 130.918 70.137C130.701 70.137 130.485 70.137 130.485 69.92H130.268V71.003H129.835V67.968H130.268V68.185H130.701C130.918 68.185 130.484 67.535 130.701 67.535ZM130.051 68.618V69.268H130.268C130.485 69.268 130.485 69.268 130.701 69.051L130.918 68.834V68.617C130.918 68.4 130.918 68.401 130.701 68.185C130.484 68.185 130.484 67.967 130.268 67.967H130.051L129.834 68.184V68.401C129.863 68.4003 129.891 68.4055 129.918 68.4161C129.944 68.4268 129.969 68.4427 129.989 68.463C130.009 68.4833 130.025 68.5075 130.036 68.5342C130.047 68.5608 130.052 68.5893 130.051 68.618Z" fill="black"/>
</g>
<defs>
<linearGradient id="paint0_linear_30_102" x1="60.1509" y1="3.02452" x2="18.0277" y2="46.1591" gradientUnits="userSpaceOnUse">
<stop stop-color="#00D1CC"/>
<stop offset="0.083" stop-color="#11B6CC"/>
<stop offset="0.227" stop-color="#2B8CCC"/>
<stop offset="0.375" stop-color="#406ACD"/>
<stop offset="0.525" stop-color="#514FCD"/>
<stop offset="0.677" stop-color="#5D3CCD"/>
<stop offset="0.834" stop-color="#6431CD"/>
<stop offset="1" stop-color="#662DCD"/>
</linearGradient>
<linearGradient id="paint1_linear_30_102" x1="58.125" y1="-2.28852" x2="18.0128" y2="34.3218" gradientUnits="userSpaceOnUse">
<stop stop-color="#00D1CC"/>
<stop offset="0.083" stop-color="#11B6CC"/>
<stop offset="0.227" stop-color="#2B8CCC"/>
<stop offset="0.375" stop-color="#406ACD"/>
<stop offset="0.525" stop-color="#514FCD"/>
<stop offset="0.677" stop-color="#5D3CCD"/>
<stop offset="0.834" stop-color="#6431CD"/>
<stop offset="1" stop-color="#662DCD"/>
</linearGradient>
<linearGradient id="paint2_linear_30_102" x1="63.8306" y1="1.84178" x2="23.0684" y2="32.001" gradientUnits="userSpaceOnUse">
<stop stop-color="#00D1CC"/>
<stop offset="0.083" stop-color="#11B6CC"/>
<stop offset="0.227" stop-color="#2B8CCC"/>
<stop offset="0.375" stop-color="#406ACD"/>
<stop offset="0.525" stop-color="#514FCD"/>
<stop offset="0.677" stop-color="#5D3CCD"/>
<stop offset="0.834" stop-color="#6431CD"/>
<stop offset="1" stop-color="#662DCD"/>
</linearGradient>
</defs>
</svg>
